<svg width="40" height="45" fill="none" xmlns="http://www.w3.org/2000/svg"><path d="M20 45c-.621 0-1.2-.166-1.74-.455l-5.506-3.266c-.829-.455-.415-.62-.166-.703 1.118-.372 1.325-.454 2.484-1.116.125-.083.29-.041.414.041l4.224 2.522c.166.083.373.083.497 0l16.522-9.55c.166-.082.248-.248.248-.454V12.96c0-.206-.082-.372-.248-.455L20.207 2.998c-.166-.083-.373-.083-.497 0L3.188 12.506c-.165.082-.248.29-.248.454V32.02c0 .165.083.372.248.455l4.514 2.604c2.443 1.24 3.975-.207 3.975-1.654v-18.81c0-.248.207-.496.497-.496h2.112c.248 0 .497.207.497.496v18.81c0 3.266-1.781 5.168-4.887 5.168-.952 0-1.697 0-3.809-1.034l-4.348-2.48A3.488 3.488 0 0 1 0 32.06V13.002c0-1.24.662-2.398 1.74-3.018L18.26.434c1.036-.579 2.444-.579 3.48 0l16.52 9.55A3.488 3.488 0 0 1 40 13.002V32.06c0 1.24-.663 2.398-1.74 3.018l-16.52 9.55A4.243 4.243 0 0 1 20 45Zm5.093-13.105c-7.246 0-8.737-3.308-8.737-6.119 0-.248.207-.496.497-.496h2.153c.248 0 .456.165.456.413.331 2.191 1.283 3.266 5.672 3.266 3.479 0 4.97-.785 4.97-2.645 0-1.075-.415-1.86-5.839-2.398-4.513-.455-7.33-1.447-7.33-5.044 0-3.348 2.816-5.333 7.537-5.333 5.3 0 7.909 1.82 8.24 5.788a.666.666 0 0 1-.124.372c-.083.083-.207.165-.331.165h-2.153a.485.485 0 0 1-.456-.372c-.497-2.273-1.78-3.018-5.176-3.018-3.81 0-4.265 1.323-4.265 2.316 0 1.198.538 1.57 5.673 2.232 5.093.661 7.495 1.612 7.495 5.168-.042 3.638-3.023 5.705-8.282 5.705Z" fill="#2CA631"/></svg>