<svg width="60" height="44" fill="none" xmlns="http://www.w3.org/2000/svg"><path d="M51.665 25.294c-2.093.01-3.913.503-5.436 1.232-.56-1.082-1.118-2.046-1.216-2.754-.11-.825-.242-1.329-.11-2.315.131-.986.723-2.39.712-2.497-.01-.107-.131-.61-1.337-.621-1.205-.01-2.246.225-2.367.536-.12.31-.35 1.018-.504 1.746-.208 1.072-2.411 4.898-3.671 6.902-.406-.782-.756-1.468-.833-2.015-.11-.825-.242-1.329-.11-2.315s.724-2.39.712-2.497c-.01-.107-.131-.61-1.337-.621-1.205-.01-2.246.225-2.367.536-.12.31-.252 1.04-.504 1.747-.252.707-3.178 7.094-3.945 8.744-.31.668-.636 1.33-.976 1.983 0 0-.01.032-.044.086-.106.205-.216.408-.328.61v.011c-.165.29-.34.557-.428.557-.065 0-.186-.771.022-1.821.439-2.219 1.48-5.67 1.469-5.787 0-.065.197-.665-.68-.976-.855-.31-1.161.204-1.238.204-.077 0-.132.182-.132.182s.954-3.88-1.819-3.88c-1.731 0-4.12 1.855-5.304 3.526-1.346.716-2.69 1.434-4.033 2.155-.646.353-1.315.707-1.94 1.04-.044-.044-.087-.097-.131-.14-3.354-3.505-9.557-5.98-9.294-10.684.099-1.715.702-6.216 11.913-11.682 9.228-4.447 16.57-3.215 17.842-.482 1.819 3.901-3.935 11.145-13.47 12.195-3.638.397-5.545-.975-6.027-1.489-.504-.536-.58-.568-.767-.46-.307.16-.11.642 0 .92.285.73 1.457 2.015 3.441 2.648 1.754.557 6.017.868 11.178-1.083 5.776-2.186 10.291-8.262 8.965-13.352-1.326-5.166-10.093-6.87-18.39-3.987-4.93 1.715-10.28 4.415-14.126 7.93C.485 13.506-.238 17.14.058 18.66c1.063 5.401 8.68 8.916 11.726 11.52-.153.086-.296.162-.416.226-1.524.74-7.332 3.708-8.779 6.848-1.643 3.557.264 6.108 1.524 6.45 3.912 1.062 7.934-.846 10.093-3.996 2.159-3.151 1.896-7.245.899-9.12-.011-.021-.022-.043-.044-.065.395-.224.8-.46 1.195-.685.725-.42 1.46-.823 2.202-1.211-.372.996-.646 2.186-.778 3.9-.164 2.015.68 4.63 1.786 5.659.494.45 1.075.46 1.447.46 1.293 0 1.874-1.05 2.52-2.293a44.337 44.337 0 0 0 1.502-3.29s-.887 4.78 1.524 4.78c.876 0 1.764-1.115 2.159-1.683v.011s.021-.032.065-.107l.143-.225v-.021c.35-.6 1.14-1.962 2.312-4.223 1.512-2.915 2.97-6.558 2.97-6.558s.132.89.58 2.368c.264.868.812 1.822 1.25 2.743-.35.483-.57.75-.57.75l.011.011c-.285.365-.591.761-.931 1.147-1.195 1.393-2.62 2.99-2.817 3.45-.23.547-.175.944.264 1.265.317.236.887.268 1.468.236 1.074-.075 1.83-.332 2.203-.493a7.45 7.45 0 0 0 1.895-.975c1.173-.847 1.885-2.058 1.82-3.654-.033-.88-.329-1.758-.69-2.583.11-.15.207-.3.317-.45 1.852-2.647 3.288-5.552 3.288-5.552s.132.89.58 2.369c.22.75.67 1.565 1.064 2.357-1.743 1.383-2.817 2.99-3.2 4.04-.69 1.951-.154 2.83.865 3.033.46.097 1.118-.117 1.6-.321a7.345 7.345 0 0 0 2.028-1.018c1.173-.847 2.301-2.026 2.236-3.622-.033-.729-.23-1.447-.504-2.144 1.479-.6 3.386-.932 5.819-.653 5.217.6 6.247 3.783 6.05 5.122-.198 1.34-1.294 2.069-1.655 2.294-.362.225-.483.3-.45.46.044.236.22.226.526.183.428-.075 2.74-1.083 2.839-3.548.164-3.15-2.904-6.59-8.33-6.558ZM11.423 38.561c-1.732 1.843-4.143 2.54-5.184 1.95-1.118-.632-.68-3.354 1.446-5.304 1.293-1.19 2.96-2.294 4.066-2.969.252-.15.625-.364 1.074-.632.077-.043.12-.064.12-.064l.264-.161c.778 2.786.033 5.24-1.787 7.18Zm12.603-8.38c-.603 1.436-1.863 5.111-2.63 4.908-.658-.172-1.064-2.958-.132-5.712.471-1.383 1.468-3.033 2.05-3.676.942-1.029 1.983-1.372 2.235-.954.318.547-1.15 4.533-1.523 5.434Zm10.4 4.865c-.252.129-.493.214-.603.15-.077-.043.11-.214.11-.214s1.304-1.372 1.819-1.994c.296-.364.646-.792 1.02-1.275v.14c0 1.64-1.623 2.743-2.346 3.193Zm8.022-1.79c-.186-.128-.154-.557.471-1.897.241-.525.811-1.403 1.787-2.25.11.343.186.675.175.986-.011 2.068-1.523 2.84-2.433 3.161Z" fill="#FF3939"/></svg>